<svg width="802" height="296" viewBox="0 0 802 296" fill="none" xmlns="http://www.w3.org/2000/svg">
<g clip-path="url(#clip0)">
<path d="M576.754 139.532C574.776 139.614 573.622 139.614 573.622 139.614C574.364 139.532 575.435 139.532 576.754 139.532Z" fill="#B13634"/>
<path d="M782.549 293.652L619.446 292.828L323.322 146.29V143.076C340.877 127.994 344.008 125.686 356.206 108.378C368.816 90.4939 373.184 81.6752 395.601 77.1423C403.266 75.8236 411.673 73.0215 418.678 69.2303C425.684 65.3567 430.794 56.2908 437.799 51.7579C440.354 50.4392 445.464 45.0821 448.019 43.1865C450.574 39.9723 458.65 26.2086 461.205 22.4174C463.431 19.6153 469.282 11.2912 474.722 11.0439C484.777 5.27472 492.029 -8.15925 511.15 6.67581C525.408 10.5494 527.469 29.7526 553.1 57.6919C566.04 71.7852 588.457 101.29 593.897 114.395C605.765 121.895 609.803 116.62 618.539 121.483C644.748 136.235 664.858 167.801 675.572 182.883C678.539 187.004 696.423 206.455 696.423 206.455C696.423 206.455 714.473 224.009 732.028 243.213C741.423 247.086 782.549 293.652 782.549 293.652Z" fill="#E44E53"/>
<path d="M245.767 214.119L188.817 224.751C185.603 230.52 169.532 238.02 144.559 239.009C122.389 239.833 72.6918 259.366 67.4171 278.981C67.4171 278.981 65.2743 273.542 7.08789 291.179C94.862 288.295 245.767 287.883 198.295 291.179C185.521 291.179 801.67 294.064 801.67 294.064C801.67 294.064 782.796 259.366 758.071 252.938C732.604 246.344 727.083 238.515 718.594 234.064C714.638 227.801 650.682 226.976 634.693 206.949C615.49 182.883 596.864 172.169 596.864 172.169C566.205 132.114 545.848 121.153 527.798 121.73C520.134 122.389 504.062 95.0268 490.711 92.884C483.705 89.6697 479.832 96.0982 473.403 89.6697C471.508 87.1148 474.722 83.9005 470.848 81.3456C468.293 79.45 463.843 80.6863 460.628 80.6863C452.304 80.0269 449.09 81.3456 442.744 85.1368C440.189 87.0324 431.37 96.2631 427.579 97.4993C424.365 98.818 418.596 102.115 415.382 103.351C407.717 106.565 409.53 109.285 401.206 109.944C395.437 109.944 388.266 109.779 383.569 113.653C377.058 119.01 375.162 117.609 371.371 125.274C365.602 136.153 347.552 137.884 335.437 139.862C321.344 141.757 307.91 140.521 304.696 157.087C301.481 173.653 299.586 178.186 281.619 180.081C274.613 181.4 259.861 181.4 254.092 186.427C247.663 192.773 250.218 204.971 245.767 212.636" fill="#D92033"/>
<path d="M240.74 216.262L242.306 198.295C242.306 198.295 236.619 192.114 236.619 187.993C236.619 183.872 241.647 178.433 241.647 178.433C241.647 178.433 244.037 168.46 231.509 165.905C218.982 163.35 205.301 167.224 200.191 169.861C195.081 172.581 191.784 168.295 191.784 168.295C191.784 168.295 187.169 146.867 183.378 145.796L182.389 147.691L180.163 145.796L180.823 149.34L173.653 155.274C173.653 155.274 171.757 157.334 174.477 158.488C174.477 158.488 174.889 159.394 176.702 159.394C178.515 159.394 180.576 158.653 182.141 159.724C185.356 161.785 183.955 168.378 186.427 172.334C188.9 176.29 194.669 186.839 201.262 189.147C201.262 189.147 203.9 192.114 203.735 197.306C203.652 202.499 205.795 212.636 204.229 213.625C202.746 214.614 200.933 216.18 200.933 216.18C200.933 216.18 207.856 217.251 207.691 215.603C207.443 213.872 208.02 203.158 209.009 201.345C209.998 199.449 207.691 189.477 210.081 187.581C212.471 185.685 216.921 190.96 225.575 181.729C225.575 181.729 225.246 182.801 227.388 186.098C227.388 186.098 234.476 197.389 233.817 201.839C233.158 206.207 232.333 215.356 231.18 215.768C230.108 216.18 227.883 218.323 227.883 218.323H232.993L237.773 201.757L238.267 213.707L236.372 215.685L240.74 216.262Z" fill="#B61B2B"/>
<path d="M313.02 143.9L314.009 142.911C313.926 142.252 313.926 141.592 313.926 140.933C313.926 140.686 313.926 140.438 313.926 140.109L312.937 139.12L313.926 138.296C314.009 137.554 314.009 136.812 314.091 136.07L313.514 134.752L314.256 134.34C314.338 133.845 314.338 133.186 314.421 132.691L313.926 131.29L314.668 130.631C314.75 130.136 314.75 129.477 314.915 128.9L313.926 127.252L315.245 126.757C315.327 126.51 315.327 126.263 315.327 126.015L314.833 124.45L315.657 123.79C315.739 123.213 315.822 122.636 315.987 122.059L315.327 120.494L316.399 119.834C316.481 119.505 316.481 119.092 316.564 118.763L316.069 117.114L316.811 117.032C316.893 116.62 316.976 116.208 317.058 115.796L316.728 113.983L317.47 113.406C317.553 112.911 317.635 112.334 317.8 111.84L317.058 111.098L318.13 110.027C318.212 109.367 318.459 108.708 318.542 108.049L317.8 106.977L318.871 106.235C318.954 105.823 319.036 105.494 319.119 105.082L318.624 102.527L319.531 103.186C320.108 100.466 320.52 98.7355 320.52 98.7355C320.52 98.7355 321.097 100.631 322.003 103.763L322.58 103.021L322.415 105.494C322.498 105.988 322.745 107.389 322.827 107.389H324.064L323.322 108.955C323.404 109.285 323.487 109.532 323.651 109.944L324.64 110.027L324.311 112.582C324.393 112.746 324.393 113.241 324.393 113.241H325.382L325.135 116.125H326.289L325.547 119.01C325.629 119.505 325.794 119.092 325.877 120.988H326.618L326.124 121.812C326.206 122.224 326.289 122.389 326.371 122.884L327.525 123.131L326.701 124.12C326.783 124.614 326.783 124.862 326.948 124.862H328.02L327.36 128.323C327.443 128.9 327.525 129.724 327.607 130.301L328.349 130.796L327.855 132.774C327.937 133.351 327.937 133.928 328.02 134.504L329.256 135.411L328.184 137.224C328.184 137.554 328.267 137.966 328.267 138.378L329.256 139.202L328.267 141.427C328.267 142.004 328.267 142.581 328.267 143.241L329.256 144.642L328.184 145.796C328.102 146.62 328.02 147.444 327.937 148.186L328.102 148.433L327.772 148.845C327.607 149.916 327.443 150.905 327.195 151.894L327.69 152.801L326.536 154.037C326.371 154.614 326.124 155.191 325.959 155.603L326.124 156.427L325.3 156.922C325.053 157.416 324.805 157.828 324.558 158.241L324.97 158.982L323.734 159.394C323.404 159.724 323.157 159.889 322.91 160.136L323.239 160.631H322.168C321.179 161.62 320.602 161.784 320.602 161.784C320.602 161.784 320.272 161.62 319.778 160.631H318.789L319.119 159.806C319.036 159.642 318.871 159.477 318.789 159.312H317.47L317.8 157.664C317.635 157.334 317.47 157.004 317.305 156.675L315.987 156.427L316.481 154.779C316.399 154.449 316.152 154.037 316.069 153.708L314.833 153.048L315.41 151.812C315.163 151.07 314.998 150.411 314.833 149.587L313.844 148.927L314.338 147.197C314.256 146.455 314.091 145.631 314.009 144.724L313.02 143.9Z" fill="#B61B2B"/>
<path d="M304.119 175.96L304.778 175.218C304.778 174.724 304.696 174.229 304.696 173.735C304.696 173.57 304.696 173.323 304.696 173.158L304.036 172.416L304.778 171.839C304.778 171.345 304.86 170.768 304.86 170.191L304.448 169.202L304.943 168.872C305.025 168.46 305.025 168.048 305.025 167.636L304.696 166.647L305.19 166.153C305.272 165.74 305.272 165.328 305.355 164.916L304.613 163.68L305.52 163.268C305.52 163.103 305.602 162.938 305.602 162.773L305.272 161.62L305.849 161.125C305.932 160.713 305.932 160.301 306.014 159.806L305.52 158.653L306.261 158.158C306.344 157.911 306.344 157.664 306.344 157.416L306.014 156.18L306.509 156.098C306.591 155.768 306.591 155.438 306.674 155.109L306.426 153.708L306.921 153.213C307.003 152.801 307.003 152.471 307.168 152.059L306.674 151.565L307.415 150.823C307.498 150.328 307.58 149.834 307.745 149.339L307.25 148.598L307.992 148.103C308.075 147.774 308.075 147.526 308.157 147.279L307.827 145.383L308.404 145.878C308.816 143.818 309.146 142.581 309.146 142.581C309.146 142.581 309.558 143.982 310.135 146.372L310.547 145.878L310.712 147.526C310.794 147.938 310.877 148.927 311.042 148.927H311.866L311.371 150.081C311.454 150.328 311.454 150.493 311.536 150.823L312.195 150.905L311.948 152.883C311.948 152.966 312.031 153.378 312.031 153.378H312.69L312.525 155.603H313.267L312.772 157.746C312.855 158.158 312.855 157.828 313.02 159.23H313.514L313.184 159.889C313.267 160.219 313.267 160.383 313.349 160.631L314.173 160.795L313.597 161.537C313.679 161.867 313.679 162.032 313.761 162.032H314.503L314.009 164.669C314.091 165.081 314.091 165.74 314.173 166.153L314.668 166.482L314.338 167.966C314.421 168.378 314.421 168.872 314.421 169.284L315.327 169.944L314.586 171.345C314.586 171.674 314.586 171.839 314.668 172.169L315.41 172.828L314.75 174.477C314.75 174.971 314.75 175.383 314.75 175.795L315.41 176.784L314.668 177.609C314.586 178.268 314.586 178.845 314.503 179.422L314.586 179.587L314.421 179.916C314.338 180.74 314.173 181.482 314.009 182.141L314.338 182.801L313.597 183.707C313.514 184.119 313.267 184.532 313.184 184.861L313.267 185.521L312.69 185.933C312.525 186.262 312.36 186.592 312.195 186.922L312.525 187.499L311.619 187.828C311.454 188.158 311.206 188.158 311.042 188.323L311.289 188.652H310.547C309.888 189.394 309.393 189.477 309.393 189.477C309.393 189.477 309.146 189.394 308.816 188.652H308.157L308.322 188.075C308.239 187.993 308.157 187.828 308.075 187.746H307.168L307.415 186.51C307.333 186.262 307.168 186.015 307.086 185.768L306.179 185.603L306.509 184.367C306.426 184.119 306.344 183.872 306.179 183.543L305.355 183.048L305.767 182.059C305.685 181.565 305.437 180.988 305.355 180.493L304.613 179.999L304.943 178.68C304.86 178.103 304.778 177.444 304.696 176.867L304.119 175.96Z" fill="#B61B2B"/>
<path d="M318.954 154.532H323.487V186.592H318.954V154.532Z" fill="#B61B2B"/>
<path d="M447.442 140.521C440.436 134.752 434.667 128.983 434.667 128.983L391.645 127.417L390.244 138.131L358.761 138.955L357.937 150.576L339.475 150.658L338.816 165.328L327.937 164.669L327.278 182.554L295.3 183.872L294.641 203.735C294.641 203.735 277.992 213.954 270.987 215.85C257.553 219.724 243.46 211.976 230.026 211.399C215.356 210.74 205.053 212.718 193.597 222.279C181.482 232.498 175.713 249.146 161.62 257.471C139.862 271.564 112.169 272.553 87.6917 272.553C74.0929 272.553 78.461 272.965 45.4942 275.85C17.5548 278.322 5.76919 290.849 0 295.3C45.3293 295.3 32.6371 295.3 87.6917 295.3L609.556 292.827C609.556 292.827 605.93 289.696 575.6 257.223C545.271 224.751 522.936 233.24 522.936 233.24C522.936 233.24 486.507 235.383 489.062 229.202C491.617 223.02 512.057 215.52 512.057 215.52L516.507 194.339C516.507 194.339 493.842 193.597 490.958 201.922C488.073 210.246 477.524 207.114 477.524 207.114L452.881 210.246L446.782 222.361L362.964 212.141L346.975 209.586L414.475 190.383L480.985 194.339C480.985 194.339 487.661 192.279 483.87 191.372C479.996 190.383 422.469 186.592 422.469 186.592L430.134 181.812L493.101 186.922C493.101 186.922 500.766 190.466 510.079 181.812C519.392 173.158 510.079 171.262 510.079 171.262C510.079 171.262 507.194 173.982 494.09 173.323C480.985 172.581 435.244 170.603 435.244 170.603L439.365 163.598L493.43 166.153C493.43 166.153 499.529 170.933 510.079 158.817V150.823C510.079 150.823 504.969 157.828 447.112 152.389L448.101 148.515C448.101 148.515 480.079 152.059 494.832 146.29L496.397 143.076H481.068L447.442 140.521Z" fill="#B61B2B"/>
<path d="M163.103 188.652L160.466 186.757H160.713L161.208 186.18L161.29 186.427C161.29 186.427 161.372 186.51 161.372 186.262C161.372 186.015 161.455 185.85 161.125 185.768C160.878 185.685 160.054 185.768 160.054 185.768C160.054 185.768 159.807 185.273 159.807 185.026C159.807 184.779 159.559 184.284 159.559 184.284C159.559 184.284 159.642 184.12 159.559 183.79C159.23 182.966 158.653 181.07 158.653 181.07C158.653 181.07 158.653 181.729 158.653 181.977C158.653 182.224 158.488 182.224 158.488 182.224L158.405 182.306L157.746 181.235C157.746 181.235 157.746 181.4 157.911 181.729C158.076 182.141 158.076 182.141 158.076 182.141L157.581 181.729C157.581 181.729 157.499 181.812 157.499 181.977C157.581 182.141 157.664 182.306 157.664 182.306C157.664 182.306 157.499 182.306 157.499 182.389C157.416 182.554 157.581 182.718 157.581 182.718L157.252 182.883L157.499 183.13H157.169L157.334 183.46L157.169 183.79L157.334 183.955L157.087 184.119V184.202L157.334 184.284C157.334 184.284 157.169 184.449 157.169 184.696C157.169 185.026 157.334 185.685 157.334 185.685C157.334 185.685 157.499 186.262 157.664 186.427C157.829 186.592 157.004 186.51 157.004 186.51H156.345L156.839 186.674L156.51 186.839L155.85 187.004L155.603 187.087C155.603 187.087 155.686 187.169 155.933 187.169C156.18 187.169 156.51 187.169 156.51 187.169L155.686 187.581L155.191 187.828C155.191 187.828 154.861 187.993 155.274 187.993C155.603 187.993 155.603 187.993 155.603 187.993L154.614 188.57C154.614 188.57 154.697 188.652 154.861 188.652C155.109 188.652 155.109 188.652 155.109 188.652L153.131 190.054C153.131 190.054 153.378 190.136 153.46 190.054C153.625 189.971 154.697 189.477 154.697 189.477L154.202 189.971C154.202 189.971 154.367 189.971 154.449 189.889C154.532 189.806 155.521 189.312 155.521 189.312L155.191 189.724C155.191 189.724 155.521 189.559 155.603 189.477C155.686 189.394 156.345 188.982 156.345 188.982L156.839 188.652L157.004 188.57C157.087 188.57 157.169 188.57 157.334 188.405C157.499 188.24 158.076 187.581 158.076 187.581L158.158 187.499L158.488 187.911L159.147 188.57L159.559 188.817H159.971C159.971 188.817 160.054 188.9 160.219 188.9C160.383 188.9 160.383 188.982 160.383 188.982C160.383 188.982 160.548 188.982 160.631 188.982C160.713 188.982 160.631 189.065 160.631 189.065H160.878H161.125H161.29L161.372 188.982H161.537V189.065H161.867V188.982H162.032V189.065H162.279V188.817H162.444H162.526V188.9H162.691V188.817V188.735H162.609V188.652H162.526V188.57H162.856L163.103 188.652Z" fill="#B61B2B"/>
<path d="M172.911 108.049L167.636 104.505H168.131L169.12 103.516L169.284 104.01C169.284 104.01 169.449 104.093 169.449 103.598C169.449 103.104 169.614 102.774 168.955 102.692C168.46 102.609 166.73 102.692 166.73 102.692C166.73 102.692 166.235 101.785 166.235 101.373C166.235 100.878 165.741 100.054 165.741 100.054C165.741 100.054 165.905 99.7246 165.741 99.1477C165.164 97.6642 164.01 94.1202 164.01 94.1202C164.01 94.1202 164.092 95.3565 164.092 95.851C164.092 96.3455 163.845 96.2631 163.845 96.2631L163.68 96.4279L162.279 94.4499C162.279 94.4499 162.197 94.6972 162.526 95.4389C162.938 96.2631 162.856 96.2631 162.856 96.2631L161.784 95.4389C161.784 95.4389 161.537 95.6037 161.62 95.851C161.784 96.0983 161.867 96.4279 161.867 96.4279C161.867 96.4279 161.62 96.3455 161.455 96.5103C161.29 96.7576 161.537 97.1697 161.537 97.1697L160.96 97.4993L161.455 97.9938L160.795 98.0763L161.043 98.6532L160.795 99.2301L161.208 99.5598L160.713 99.807V99.9718L161.208 100.219C161.208 100.219 160.878 100.466 160.878 101.043C160.878 101.62 161.125 102.939 161.125 102.939C161.125 102.939 161.537 104.01 161.784 104.258C162.032 104.505 160.548 104.422 160.548 104.422L159.312 104.505L160.383 104.917L159.642 105.247L158.405 105.494L157.911 105.659C157.911 105.659 158.076 105.823 158.57 105.823C159.065 105.741 159.724 105.741 159.724 105.741L158.158 106.483L157.169 106.977C157.169 106.977 156.592 107.225 157.334 107.225C157.993 107.225 157.993 107.225 157.993 107.225L155.933 108.214C155.933 108.214 156.015 108.378 156.427 108.296C156.922 108.214 156.922 108.214 156.922 108.214L152.966 110.851C152.966 110.851 153.46 110.933 153.708 110.851C153.955 110.768 156.263 109.862 156.263 109.862L155.191 110.768C155.191 110.768 155.603 110.686 155.686 110.604C155.768 110.521 157.828 109.532 157.828 109.532L157.169 110.356C157.169 110.356 157.746 110.109 157.993 109.944C158.158 109.779 159.394 108.955 159.394 108.955L160.301 108.378C160.301 108.378 160.631 108.214 160.713 108.214C160.795 108.131 161.043 108.214 161.29 107.966C161.537 107.719 162.773 106.565 162.773 106.565L162.938 106.4L163.598 107.142L164.834 108.296L165.576 108.79H166.482C166.482 108.79 166.647 108.955 166.977 108.955C167.389 108.955 167.224 109.12 167.224 109.12C167.224 109.12 167.636 109.12 167.719 109.12C167.883 109.12 167.801 109.285 167.801 109.285H168.295H168.79H169.12L169.284 109.12H169.697V109.285H170.356V109.12H170.768V109.285H171.262L171.345 108.79H171.757H171.922L172.004 108.955H172.334V108.79V108.626H172.169V108.461H172.004V108.296H172.664L172.911 108.049Z" fill="#B61B2B"/>
<path d="M105.329 227.224L101.95 224.916H102.197L102.856 224.257L103.021 224.586C103.021 224.586 103.186 224.669 103.186 224.339C103.186 224.009 103.268 223.844 102.939 223.762C102.692 223.68 101.538 223.762 101.538 223.762C101.538 223.762 101.29 223.185 101.29 222.938C101.29 222.691 101.043 222.114 101.043 222.114C101.043 222.114 101.208 221.949 101.043 221.537C100.631 220.548 99.9718 218.323 99.9718 218.323C99.9718 218.323 99.9718 219.147 99.9718 219.394C99.9718 219.641 99.807 219.641 99.807 219.641L99.6421 219.806L98.818 218.57C98.818 218.57 98.818 218.735 98.9828 219.147C99.23 219.641 99.1476 219.641 99.1476 219.641L98.4883 219.147C98.4883 219.147 98.3235 219.229 98.4059 219.394C98.5707 219.559 98.5707 219.806 98.5707 219.806C98.5707 219.806 98.4059 219.724 98.3235 219.888C98.241 220.053 98.4059 220.301 98.4059 220.301L97.9938 220.465L98.3235 220.795H97.9114L98.0762 221.125L97.9114 221.537L98.1586 221.702L97.9114 221.866V222.031L98.1586 222.196C98.1586 222.196 97.9938 222.361 97.9938 222.691C97.9938 223.02 98.1586 223.927 98.1586 223.927C98.1586 223.927 98.4059 224.669 98.6531 224.751C98.818 224.916 97.829 224.916 97.829 224.916H97.0048L97.6641 225.163L97.1696 225.328L96.3454 225.493L96.0982 225.658C96.0982 225.658 96.1806 225.822 96.5927 225.822C96.9224 225.822 97.3345 225.822 97.3345 225.822L96.263 226.317L95.6037 226.647C95.6037 226.647 95.1916 226.811 95.6861 226.811C96.1806 226.811 96.1806 226.811 96.1806 226.811L94.8619 227.471C94.8619 227.471 94.9444 227.553 95.1916 227.553C95.4389 227.553 95.5213 227.471 95.5213 227.471L93.0488 229.202C93.0488 229.202 93.296 229.284 93.5433 229.202C93.7081 229.119 95.1916 228.542 95.1916 228.542L94.5323 229.119C94.5323 229.119 94.7795 229.119 94.8619 229.037C94.9444 228.954 96.263 228.295 96.263 228.295L95.8509 228.789C95.8509 228.789 96.263 228.625 96.3454 228.542C96.5103 228.46 97.252 227.883 97.252 227.883L97.829 227.471C97.829 227.471 97.9938 227.306 98.0762 227.306C98.1586 227.306 98.241 227.306 98.4883 227.141C98.6531 226.976 99.4773 226.235 99.4773 226.235L99.5597 226.07L99.9718 226.564L100.796 227.306L101.29 227.636H101.867C101.867 227.636 101.95 227.8 102.197 227.8C102.444 227.8 102.362 227.883 102.362 227.883C102.362 227.883 102.609 227.883 102.692 227.883C102.774 227.883 102.774 228.048 102.774 228.048H103.104H103.433H103.598L103.681 227.965H103.928V228.048H104.422V227.883H104.67V228.048H104.999V227.471H105.246H105.329V227.636H105.494V227.471V227.388H105.329V227.224H105.164V227.059H105.659L105.329 227.224Z" fill="#B61B2B"/>
<path d="M316.399 85.4664L308.157 79.4499H308.816L310.3 77.7192L310.547 78.5434C310.547 78.5434 310.794 78.7082 310.794 77.9664C310.794 77.2247 310.959 76.6478 310.135 76.4829C309.476 76.3181 306.756 76.4829 306.756 76.4829C306.756 76.4829 306.097 74.9994 306.097 74.2577C306.097 73.5159 305.437 72.0324 305.437 72.0324C305.437 72.0324 305.767 71.4555 305.437 70.5489C304.448 67.994 302.718 61.9775 302.718 61.9775C302.718 61.9775 302.8 64.1204 302.8 64.8621C302.8 65.6039 302.305 65.5215 302.305 65.5215L301.976 65.8511L299.833 62.472C299.833 62.472 299.751 62.8841 300.245 64.1204C300.822 65.4391 300.822 65.5215 300.822 65.5215L299.174 64.1204C299.174 64.1204 298.844 64.3676 299.009 64.7797C299.256 65.2742 299.503 65.8511 299.503 65.8511C299.503 65.8511 299.091 65.7687 298.926 66.016C298.762 66.4281 299.091 67.1698 299.091 67.1698L298.185 67.7467L298.926 68.5709L297.937 68.6533L298.349 69.6423L297.937 70.6313L298.514 71.1258L297.855 71.5379L297.937 71.95L298.597 72.3621C298.597 72.3621 298.102 72.7742 298.02 73.7632C297.937 74.7522 298.432 76.9774 298.432 76.9774C298.432 76.9774 299.009 78.7906 299.503 79.2027C299.998 79.6148 297.525 79.5324 297.525 79.5324L295.547 79.6148L297.113 80.1917L296.042 80.6862L294.064 81.1807L293.404 81.5104C293.404 81.5104 293.569 81.84 294.476 81.84C295.3 81.7576 296.207 81.7576 296.207 81.7576L293.734 83.0763L292.251 83.9829C292.251 83.9829 291.344 84.395 292.415 84.395C293.487 84.3125 293.487 84.3125 293.487 84.3125L290.355 86.0433C290.355 86.0433 290.52 86.2905 291.179 86.2081C291.838 86.1257 292.003 86.1257 292.003 86.1257L285.904 90.6586C285.904 90.6586 286.564 90.8235 286.976 90.6586C287.388 90.4938 290.849 88.9279 290.849 88.9279L289.201 90.4938C289.201 90.4938 289.778 90.4114 289.943 90.2466C290.108 90.0817 293.24 88.351 293.24 88.351L292.251 89.7521C292.251 89.7521 293.24 89.34 293.487 89.0927C293.734 88.8455 295.712 87.4444 295.712 87.4444L297.113 86.4554C297.113 86.4554 297.608 86.1257 297.69 86.0433C297.855 85.9609 298.185 85.9609 298.597 85.5488C299.009 85.1367 300.904 83.0763 300.904 83.0763L301.069 82.6642L302.058 83.9005L303.954 85.9609L305.108 86.7851H306.509C306.509 86.7851 306.674 87.1971 307.333 87.1971C307.992 87.1971 307.745 87.4444 307.745 87.4444C307.745 87.4444 308.322 87.4444 308.569 87.4444C308.734 87.4444 308.652 87.7741 308.652 87.7741H309.393H310.135H310.712L310.877 87.5268H311.454V87.7741H312.443L312.525 87.4444H313.102V87.7741H313.844L313.926 86.8675H314.503H314.668L314.75 87.1971H315.245L315.162 86.8675L315.245 86.6202H314.998V86.2905H314.833V85.9609H315.904L316.399 85.4664Z" fill="#B61B2B"/>
<path d="M283.267 81.7577L277.745 77.7192H278.24L279.229 76.5654L279.394 77.1423C279.394 77.1423 279.558 77.2247 279.558 76.7302C279.558 76.2357 279.723 75.8236 279.064 75.6588C278.569 75.5764 276.756 75.6588 276.756 75.6588C276.756 75.6588 276.262 74.5874 276.262 74.1753C276.262 73.6808 275.767 72.6918 275.767 72.6918C275.767 72.6918 275.932 72.2797 275.767 71.6204C275.19 69.8896 273.954 65.8512 273.954 65.8512C273.954 65.8512 274.036 67.2523 274.036 67.8292C274.036 68.3237 273.789 68.2413 273.789 68.2413L273.624 68.4061L272.223 66.1809C272.223 66.1809 272.141 66.5105 272.471 67.3347C272.883 68.2413 272.8 68.3237 272.8 68.3237L271.729 67.3347C271.729 67.3347 271.481 67.4995 271.564 67.7468C271.729 68.0765 271.811 68.4061 271.811 68.4061C271.811 68.4061 271.564 68.3237 271.399 68.4885C271.234 68.8182 271.481 69.2303 271.481 69.2303L270.905 69.6424L271.399 70.1369L270.74 70.2193L270.987 70.8786L270.74 71.538L271.152 71.9501L270.657 72.2797V72.527L271.152 72.8566C271.152 72.8566 270.822 73.1863 270.822 73.8456C270.822 74.505 271.069 76.0709 271.069 76.0709C271.069 76.0709 271.481 77.3071 271.729 77.5544C271.976 77.8841 270.41 77.7192 270.41 77.7192L269.091 77.8017L270.163 78.2137L269.421 78.6258L268.102 78.9555L267.608 79.2027C267.608 79.2027 267.773 79.45 268.267 79.3676C268.927 79.1203 269.503 79.1203 269.503 79.1203L267.855 79.9445L266.866 80.5214C266.866 80.5214 266.289 80.8511 267.031 80.8511C267.69 80.8511 267.69 80.8511 267.69 80.8511L265.547 82.0049C265.547 82.0049 265.63 82.1698 266.124 82.0873C266.619 82.0049 266.701 82.0049 266.701 82.0049L262.58 85.0543C262.58 85.0543 263.075 85.1368 263.322 85.0543C263.569 84.9719 265.96 83.9005 265.96 83.9005L264.888 84.9719C264.888 84.9719 265.3 84.8895 265.383 84.8071C265.465 84.7247 267.608 83.4884 267.608 83.4884L266.949 84.4774C266.949 84.4774 267.525 84.1478 267.773 84.0653C267.938 83.9005 269.256 82.9115 269.256 82.9115L270.245 82.2522C270.245 82.2522 270.575 82.0049 270.657 82.0049C270.74 81.9225 270.987 82.0049 271.234 81.6752C271.481 81.3456 272.8 80.0269 272.8 80.0269L272.965 79.7797L273.624 80.6038L274.943 81.9225L275.685 82.417H276.674C276.674 82.417 276.839 82.6643 277.251 82.6643C277.663 82.6643 277.498 82.8291 277.498 82.8291C277.498 82.8291 277.91 82.8291 278.075 82.8291C278.24 82.8291 278.157 83.0763 278.157 83.0763H278.652H279.146H279.476L279.641 82.9115H280.053V83.0763H280.712V82.9115H281.124V83.0763H281.701L281.784 82.4994H282.196H282.361L282.443 82.6643H282.773V82.417V82.2522H282.608V82.0049H282.443V81.7577H283.102H283.267Z" fill="#B61B2B"/>
<path d="M285.987 106.895L282.443 104.257H282.69L283.35 103.516L283.514 103.928C283.514 103.928 283.679 104.01 283.679 103.598C283.679 103.186 283.762 103.021 283.432 102.939C283.185 102.856 281.948 102.939 281.948 102.939C281.948 102.939 281.701 102.279 281.701 101.95C281.701 101.62 281.454 100.961 281.454 100.961C281.454 100.961 281.619 100.714 281.454 100.301C281.042 99.1476 280.3 96.5927 280.3 96.5927C280.3 96.5927 280.3 97.4992 280.3 97.8289C280.3 98.1586 280.135 98.1586 280.135 98.1586L279.97 98.3234L279.064 96.9223C279.064 96.9223 279.064 97.1696 279.229 97.5817C279.476 98.1586 279.394 98.1586 279.394 98.1586L278.734 97.5817C278.734 97.5817 278.569 97.6641 278.652 97.9113C278.817 98.1586 278.817 98.4058 278.817 98.4058C278.817 98.4058 278.652 98.3234 278.569 98.4882C278.487 98.7355 278.652 98.9003 278.652 98.9003L278.24 99.1476L278.569 99.5597H278.157L278.322 99.9718L278.157 100.384L278.405 100.631L278.157 100.796V100.961L278.405 101.126C278.405 101.126 278.24 101.373 278.24 101.703C278.24 102.032 278.405 103.104 278.405 103.104C278.405 103.104 278.652 103.928 278.899 104.093C279.064 104.34 278.075 104.257 278.075 104.257H277.251L277.91 104.587L277.416 104.834L276.591 105.082L276.344 105.246C276.344 105.246 276.426 105.411 276.839 105.411C277.168 105.411 277.58 105.411 277.58 105.411L276.509 105.906L275.85 106.318C275.85 106.318 275.437 106.565 275.932 106.565C276.426 106.565 276.426 106.565 276.426 106.565L275.025 107.307C275.025 107.307 275.108 107.389 275.355 107.389C275.602 107.389 275.685 107.307 275.685 107.307L273.047 109.285C273.047 109.285 273.295 109.367 273.542 109.285C273.707 109.202 275.273 108.543 275.273 108.543L274.613 109.202C274.613 109.202 274.861 109.202 274.943 109.12C275.025 109.038 276.344 108.296 276.344 108.296L275.932 108.873C275.932 108.873 276.344 108.626 276.509 108.543C276.674 108.461 277.498 107.801 277.498 107.801L278.075 107.389C278.075 107.389 278.24 107.224 278.322 107.224C278.405 107.224 278.487 107.224 278.734 106.977C278.899 106.73 279.723 105.906 279.723 105.906L279.806 105.741L280.218 106.235L281.042 107.06L281.536 107.472H282.113C282.113 107.472 282.196 107.637 282.443 107.637C282.69 107.637 282.608 107.719 282.608 107.719C282.608 107.719 282.855 107.719 282.937 107.719C283.02 107.719 283.02 107.884 283.02 107.884H283.35H283.679H283.844L283.926 107.801H284.174V107.884H284.668V107.719H284.915V107.884H285.245V107.472H285.492H285.575V107.637H285.74V107.472V107.142H285.575V106.977H285.41V106.812H285.904L285.987 106.895Z" fill="#B61B2B"/>
<path d="M301.234 200.438L296.042 203.158C295.877 202.993 295.795 202.746 295.712 202.498C295.465 201.839 295.3 201.18 295.382 200.52V200.438C295.382 200.356 295.547 200.438 295.63 200.438C295.877 200.603 296.042 200.933 296.124 201.262C296.289 201.757 296.536 202.169 297.113 202.169C297.525 202.169 297.937 201.922 297.937 201.427C297.937 201.18 297.855 200.933 297.773 200.685C297.278 199.614 296.454 198.872 295.877 197.883C295.465 197.306 295.218 196.647 295.053 195.905C295.053 195.658 294.888 195.163 295.053 194.916C295.135 194.834 295.218 194.834 295.3 194.916C295.382 194.916 295.465 194.999 295.547 195.081C296.042 195.658 296.536 196.235 297.278 195.988C297.36 195.988 297.443 195.905 297.525 195.823C297.525 195.823 297.525 195.74 297.525 195.658C297.525 194.916 297.113 194.586 296.784 194.009C296.124 193.103 296.042 191.537 295.712 190.383C295.382 188.982 295.135 187.499 294.888 186.097C294.806 185.85 294.723 185.521 294.558 185.356C293.899 184.861 293.899 186.674 293.899 187.004C293.817 187.828 293.652 188.735 293.487 189.559C293.157 191.207 292.58 192.856 291.756 194.339C291.344 194.999 291.097 196.07 291.756 196.317C292.663 196.647 293.322 194.257 294.064 194.999C293.981 195.823 293.569 196.482 293.157 197.224C292.828 197.883 292.498 198.46 292.168 199.119C291.839 199.696 291.509 200.273 291.509 200.933C291.509 201.097 291.591 201.345 291.756 201.509C291.839 201.592 292.003 201.592 292.086 201.592C292.498 201.592 292.992 201.427 293.322 201.015C293.487 200.85 293.569 200.685 293.734 200.52C293.899 200.356 294.064 200.273 294.311 200.356C295.135 200.685 294.064 202.828 293.817 203.24C293.569 203.57 293.322 203.9 293.075 204.229C292.745 204.641 292.415 205.053 292.086 205.548L288.459 207.443C287.635 206.454 286.976 205.301 286.564 204.064C286.317 203.405 286.152 202.828 286.069 202.169C286.069 202.004 285.822 201.345 285.904 201.18C286.152 200.685 286.811 201.922 286.976 202.004C287.223 202.251 287.553 202.498 287.882 202.334C288.13 202.251 288.295 202.004 288.295 201.674C288.295 201.345 288.295 201.097 288.13 200.933C287.965 200.603 287.718 200.356 287.47 200.108C287.058 199.614 286.646 199.202 286.317 198.542C286.069 197.883 285.904 197.224 285.987 196.564V196.482C285.987 196.4 286.152 196.482 286.234 196.482C286.481 196.647 286.646 196.977 286.729 197.306C286.893 197.801 287.141 198.213 287.718 198.213C288.13 198.213 288.542 197.966 288.542 197.471C288.542 197.224 288.459 196.977 288.377 196.729C287.882 195.658 287.058 194.916 286.481 193.927C286.069 193.35 285.822 192.691 285.657 191.949C285.657 191.702 285.492 191.207 285.657 190.96C285.74 190.878 285.822 190.878 285.904 190.96C285.987 190.96 286.069 191.042 286.152 191.125C286.646 191.702 287.141 192.279 287.882 192.031C287.965 192.031 288.047 191.949 288.13 191.867C288.13 191.867 288.13 191.784 288.13 191.702C288.13 190.96 287.718 190.63 287.388 190.053C286.729 189.147 286.646 187.581 286.317 186.427C285.987 185.026 285.74 183.543 285.492 182.141C285.41 181.894 285.328 181.565 285.163 181.4C284.503 180.905 284.503 182.718 284.503 183.048C284.421 183.872 284.256 184.779 284.091 185.603C283.762 187.251 283.185 188.9 282.361 190.383C281.948 191.042 281.701 192.114 282.361 192.361C283.267 192.691 283.926 190.301 284.668 191.042C284.586 191.867 284.174 192.526 283.762 193.268C283.432 193.927 283.102 194.504 282.773 195.163C282.443 195.74 282.113 196.317 282.113 196.977C282.113 197.141 282.196 197.389 282.361 197.553C282.443 197.636 282.608 197.636 282.69 197.636C283.102 197.636 283.597 197.471 283.926 197.059C284.091 196.894 284.174 196.729 284.339 196.564C284.503 196.4 284.668 196.317 284.915 196.4C285.74 196.729 284.668 198.872 284.421 199.284C284.174 199.614 283.926 199.944 283.679 200.273C283.35 200.685 282.937 201.097 282.69 201.592C282.443 202.086 282.196 202.663 282.196 203.158C282.196 203.487 282.361 203.9 282.608 204.064C282.855 204.147 283.102 204.064 283.267 203.982C283.514 203.817 283.679 203.652 283.762 203.405C283.926 203.158 284.174 202.828 284.256 202.498C284.339 202.334 284.668 201.839 284.833 202.169C284.915 202.334 284.751 202.911 284.668 203.075C284.503 203.735 284.256 204.312 283.844 204.806C283.102 205.878 282.113 206.867 281.784 208.268C281.619 208.927 281.866 209.834 282.443 209.834C283.267 209.834 283.514 208.268 284.256 208.185C284.339 208.845 284.174 209.504 283.844 210.081L278.075 213.13C277.91 212.718 277.663 212.471 277.416 212.141C276.756 211.235 276.674 209.669 276.344 208.515C276.014 207.114 275.767 205.63 275.438 204.229C275.355 203.982 275.273 203.652 275.108 203.487C274.449 202.993 274.449 204.806 274.449 205.136C274.366 205.96 274.201 206.867 274.036 207.691C273.707 209.339 273.13 210.987 272.306 212.471C271.894 213.13 271.646 214.202 272.306 214.449C273.212 214.779 273.872 212.388 274.613 213.13C274.531 213.954 274.119 214.614 273.707 215.355C273.707 215.438 273.624 215.438 273.624 215.52L266.866 219.064C266.784 218.899 266.701 218.735 266.619 218.57C266.372 217.91 266.207 217.251 266.289 216.592V216.509C266.289 216.427 266.454 216.509 266.536 216.509C266.784 216.674 266.949 217.004 267.031 217.334C267.196 217.828 267.443 218.24 268.02 218.24C268.432 218.24 268.844 217.993 268.844 217.498C268.844 217.251 268.762 217.004 268.679 216.757C268.185 215.685 267.361 214.943 266.784 213.954C266.372 213.377 266.124 212.718 265.96 211.976C265.96 211.729 265.795 211.235 265.96 210.987C266.042 210.905 266.124 210.905 266.207 210.987C266.289 210.987 266.372 211.07 266.454 211.152C266.949 211.729 267.443 212.306 268.185 212.059C268.267 212.059 268.35 211.976 268.432 211.894C268.432 211.894 268.432 211.812 268.432 211.729C268.432 210.987 268.02 210.658 267.69 210.081C267.031 209.174 266.949 207.608 266.619 206.454C266.289 205.053 266.042 203.57 265.795 202.169C265.712 201.922 265.63 201.592 265.465 201.427C264.806 200.933 264.806 202.746 264.806 203.075C264.723 203.9 264.558 204.806 264.394 205.63C264.064 207.279 263.487 208.927 262.663 210.41C262.251 211.07 262.004 212.141 262.663 212.388C263.569 212.718 264.229 210.328 264.971 211.07C264.888 211.894 264.476 212.553 264.064 213.295C263.734 213.954 263.405 214.531 263.075 215.191C262.745 215.768 262.416 216.344 262.416 217.004C262.416 217.169 262.498 217.416 262.663 217.581C262.745 217.663 262.91 217.663 262.993 217.663C263.405 217.663 263.899 217.498 264.229 217.086C264.394 216.921 264.476 216.757 264.641 216.592C264.806 216.427 264.971 216.345 265.218 216.427C266.042 216.757 264.971 218.899 264.723 219.312C264.476 219.641 264.229 219.971 263.982 220.301C263.734 220.63 263.405 221.042 263.157 221.372L257.306 224.421C257.141 223.844 256.976 223.35 256.894 222.773C256.894 222.608 256.646 221.949 256.729 221.784C256.976 221.29 257.635 222.526 257.8 222.608C258.048 222.855 258.377 223.103 258.707 222.938C258.954 222.855 259.119 222.608 259.119 222.279C259.119 222.031 259.119 221.702 258.954 221.537C258.789 221.207 258.542 220.96 258.295 220.713C257.883 220.218 257.471 219.806 257.141 219.147C256.894 218.487 256.729 217.828 256.811 217.169V217.086C256.811 217.004 256.976 217.086 257.059 217.086C257.306 217.251 257.471 217.581 257.553 217.91C257.718 218.405 257.965 218.817 258.542 218.817C258.954 218.817 259.366 218.57 259.366 218.075C259.366 217.828 259.284 217.581 259.201 217.334C258.707 216.262 257.883 215.52 257.306 214.531C256.894 213.954 256.646 213.295 256.482 212.553C256.482 212.306 256.317 211.729 256.482 211.564C256.564 211.482 256.646 211.482 256.729 211.564C256.811 211.564 256.894 211.647 256.976 211.729C257.471 212.306 257.965 212.883 258.707 212.636C258.789 212.636 258.872 212.553 258.954 212.471C258.954 212.471 258.954 212.388 258.954 212.306C258.954 211.564 258.542 211.235 258.212 210.658C257.553 209.751 257.471 208.185 257.141 207.031C256.811 205.63 256.564 204.147 256.317 202.746C256.234 202.498 256.152 202.169 255.987 202.004C255.328 201.509 255.328 203.323 255.328 203.652C255.245 204.476 255.081 205.383 254.916 206.207C254.586 207.856 254.009 209.504 253.185 210.987C252.773 211.647 252.526 212.718 253.185 212.965C254.092 213.295 254.751 210.905 255.493 211.647C255.41 212.471 254.998 213.13 254.586 213.872C254.256 214.531 253.927 215.108 253.597 215.768C253.267 216.344 252.938 216.921 252.938 217.581C252.938 217.746 253.02 217.993 253.185 218.158C253.267 218.24 253.432 218.24 253.515 218.24C253.927 218.24 254.421 218.075 254.751 217.663C254.916 217.498 254.998 217.334 255.163 217.169C255.328 217.004 255.493 216.921 255.74 217.004C256.564 217.333 255.493 219.476 255.245 219.888C254.998 220.218 254.751 220.548 254.504 220.877C254.174 221.29 253.762 221.702 253.515 222.196C253.267 222.691 253.02 223.268 253.02 223.762C253.02 224.092 253.185 224.586 253.432 224.669C253.679 224.751 253.927 224.669 254.092 224.586C254.339 224.421 254.504 224.257 254.586 224.009C254.751 223.762 254.998 223.432 255.081 223.103C255.163 222.938 255.493 222.443 255.657 222.773C255.74 222.938 255.575 223.515 255.493 223.68C255.328 224.339 255.081 224.916 254.668 225.41C254.421 225.74 254.174 226.152 253.844 226.482L247.581 229.778C247.498 229.696 247.416 229.531 247.333 229.366C247.086 228.707 246.921 228.048 247.004 227.388V227.306C247.004 227.224 247.169 227.306 247.251 227.306C247.498 227.471 247.663 227.8 247.745 228.13C247.91 228.625 248.157 229.037 248.734 229.037C249.146 229.037 249.559 228.789 249.559 228.295C249.559 228.048 249.476 227.8 249.394 227.553C248.899 226.482 248.075 225.74 247.498 224.751C247.086 224.174 246.839 223.515 246.674 222.773C246.674 222.526 246.509 221.949 246.674 221.784C246.756 221.702 246.839 221.702 246.921 221.784C247.004 221.784 247.086 221.866 247.168 221.949C247.663 222.526 248.158 223.103 248.899 222.855C248.982 222.855 249.064 222.773 249.146 222.691C249.146 222.691 249.146 222.608 249.146 222.526C249.146 221.784 248.734 221.454 248.405 220.877C247.745 219.971 247.663 218.405 247.333 217.251C247.004 215.85 246.756 214.366 246.509 212.965C246.427 212.718 246.344 212.388 246.18 212.224C245.52 211.729 245.52 213.542 245.52 213.872C245.438 214.696 245.273 215.603 245.108 216.427C244.778 218.075 244.201 219.724 243.377 221.207C242.965 221.866 242.718 222.938 243.377 223.185C244.284 223.515 244.943 221.125 245.685 221.866C245.603 222.691 245.19 223.35 244.778 224.092C244.449 224.751 244.119 225.328 243.789 225.987C243.46 226.564 243.13 227.141 243.13 227.8C243.13 227.965 243.212 228.213 243.377 228.377C243.46 228.46 243.625 228.46 243.707 228.46C244.119 228.46 244.614 228.295 244.943 227.883C245.108 227.718 245.191 227.553 245.355 227.388C245.52 227.224 245.685 227.141 245.932 227.224C246.756 227.553 245.685 229.696 245.438 230.108C245.19 230.438 244.943 230.767 244.696 231.097C244.449 231.427 244.201 231.674 243.954 232.004L238.515 234.888C238.103 234.064 237.855 233.075 237.691 232.086C237.691 232.004 237.691 231.756 237.773 231.756C237.773 231.756 237.855 231.756 237.938 231.756C238.515 232.251 238.515 233.24 239.339 233.405C239.916 233.57 240.74 233.24 240.822 232.498C240.822 231.921 240.41 231.509 240.081 231.015C239.256 230.026 238.597 228.872 238.185 227.636C237.938 226.976 237.773 226.399 237.691 225.74C237.691 225.575 237.443 224.916 237.526 224.751C237.773 224.257 238.432 225.493 238.597 225.575C238.844 225.822 239.174 226.07 239.504 225.905C239.751 225.822 239.916 225.575 239.916 225.246C239.916 224.998 239.916 224.669 239.751 224.504C239.586 224.174 239.339 223.927 239.092 223.68C238.68 223.185 238.267 222.773 237.938 222.114C237.691 221.454 237.526 220.795 237.608 220.136V220.053C237.608 219.971 237.773 220.053 237.855 220.053C238.103 220.218 238.267 220.548 238.35 220.877C238.515 221.372 238.762 221.784 239.339 221.784C239.751 221.784 240.163 221.537 240.163 221.042C240.163 220.795 240.081 220.548 239.998 220.301C239.504 219.229 238.68 218.487 238.103 217.498C237.691 216.921 237.443 216.262 237.278 215.52C237.278 215.273 237.114 214.696 237.278 214.531C237.361 214.449 237.443 214.449 237.526 214.531C237.608 214.531 237.691 214.614 237.773 214.696C238.267 215.273 238.762 215.85 239.504 215.603C239.586 215.603 239.669 215.52 239.751 215.438C239.751 215.438 239.751 215.356 239.751 215.273C239.751 214.531 239.339 214.202 239.009 213.625C238.35 212.718 238.267 211.152 237.938 209.998C237.608 208.597 237.361 207.114 237.114 205.713C237.031 205.465 236.949 205.136 236.784 204.971C236.125 204.476 236.125 206.29 236.125 206.619C236.042 207.443 235.877 208.35 235.713 209.174C235.383 210.823 234.806 212.471 233.982 213.954C233.57 214.614 233.322 215.685 233.982 215.932C234.888 216.262 235.548 213.872 236.289 214.614C236.207 215.438 235.795 216.097 235.383 216.839C235.053 217.498 234.724 218.075 234.394 218.735C234.064 219.312 233.735 219.888 233.735 220.548C233.735 220.713 233.817 220.96 233.982 221.125C234.064 221.207 234.229 221.207 234.311 221.207C234.724 221.207 235.218 221.042 235.548 220.63C235.713 220.465 235.795 220.301 235.96 220.136C236.125 219.971 236.289 219.888 236.537 219.971C237.361 220.301 236.289 222.443 236.042 222.855C235.795 223.185 235.548 223.515 235.3 223.844C234.971 224.257 234.559 224.669 234.311 225.163C234.064 225.658 233.817 226.235 233.817 226.729C233.817 227.059 233.982 227.471 234.229 227.636C234.476 227.718 234.724 227.636 234.888 227.553C235.136 227.388 235.3 227.141 235.383 226.976C235.548 226.729 235.795 226.399 235.877 226.07C235.96 225.905 236.289 225.41 236.454 225.74C236.537 225.905 236.372 226.482 236.289 226.647C236.125 227.306 235.877 227.883 235.465 228.377C234.724 229.449 233.735 230.438 233.405 231.839C233.24 232.498 233.487 233.405 234.064 233.405C234.888 233.405 235.136 231.839 235.877 231.756C236.125 233.075 235.136 234.229 234.394 235.3C233.899 235.96 233.487 236.866 233.405 237.69L228.295 240.328C228.213 240.245 228.213 240.163 228.13 239.998C227.883 239.339 227.718 238.679 227.801 238.02V237.938C227.801 237.855 227.965 237.938 228.048 237.938C228.295 238.103 228.46 238.432 228.542 238.762C228.707 239.256 228.954 239.668 229.531 239.668C229.943 239.668 230.355 239.421 230.355 238.927C230.355 238.679 230.273 238.432 230.191 238.185C229.696 237.114 228.872 236.372 228.295 235.383C227.883 234.806 227.636 234.147 227.471 233.405C227.471 233.158 227.306 232.581 227.471 232.416C227.553 232.333 227.636 232.333 227.718 232.416C227.801 232.416 227.883 232.498 227.965 232.581C228.46 233.158 228.954 233.734 229.696 233.487C229.779 233.487 229.861 233.405 229.943 233.322C229.943 233.322 229.943 233.24 229.943 233.158C229.943 232.416 229.531 232.086 229.202 231.509C228.542 230.603 228.46 229.037 228.13 227.883C227.801 226.482 227.553 224.998 227.306 223.597C227.224 223.35 227.141 223.02 226.976 222.855C226.317 222.361 226.317 224.174 226.317 224.504C226.235 225.328 226.07 226.235 225.905 227.059C225.575 228.707 224.998 230.355 224.174 231.839C223.762 232.498 223.515 233.57 224.174 233.817C225.081 234.147 225.74 231.756 226.482 232.498C226.399 233.322 225.987 233.982 225.575 234.723C225.246 235.383 224.916 235.96 224.586 236.619C224.257 237.196 223.927 237.773 223.927 238.432C223.927 238.597 224.009 238.844 224.174 239.009C224.257 239.092 224.421 239.092 224.504 239.092C224.916 239.092 225.41 238.927 225.74 238.515C225.905 238.35 225.987 238.185 226.152 238.02C226.317 237.855 226.482 237.773 226.729 237.855C227.553 238.185 226.482 240.328 226.235 240.74C225.987 241.07 225.74 241.399 225.493 241.729C225.246 241.976 225.081 242.223 224.916 242.471L221.29 244.366C221.207 244.201 221.042 244.037 220.96 243.872C220.548 243.295 220.301 242.636 220.136 241.894C220.136 241.647 219.971 241.152 220.136 240.905C220.218 240.822 220.301 240.822 220.383 240.905C220.465 240.905 220.548 240.987 220.63 241.07C221.125 241.647 221.619 242.223 222.361 241.976C222.443 241.976 222.526 241.894 222.608 241.811C222.608 241.811 222.608 241.729 222.608 241.647C222.608 240.905 222.196 240.575 221.867 239.998C221.207 239.092 221.125 237.526 220.795 236.372C220.465 234.971 220.218 233.487 219.971 232.086C219.888 231.839 219.806 231.509 219.641 231.344C218.982 230.85 218.982 232.663 218.982 232.993C218.899 233.817 218.735 234.723 218.57 235.548C218.24 237.196 217.663 238.844 216.839 240.328C216.427 240.987 216.18 242.059 216.839 242.306C217.746 242.636 218.405 240.245 219.147 240.987C219.064 241.811 218.652 242.471 218.24 243.212C217.91 243.872 217.581 244.449 217.251 245.108C216.921 245.685 216.592 246.262 216.592 246.921L209.174 250.795C208.927 250.218 208.845 249.641 208.68 249.064C208.68 248.899 208.433 248.24 208.515 248.075C208.762 247.581 209.422 248.817 209.586 248.899C209.834 249.146 210.163 249.394 210.493 249.229C210.74 249.146 210.905 248.899 210.905 248.57C210.905 248.322 210.905 247.993 210.74 247.828C210.575 247.498 210.328 247.251 210.081 247.004C209.669 246.509 209.257 246.097 208.927 245.438C208.68 244.778 208.515 244.119 208.597 243.46V243.377C208.597 243.295 208.762 243.377 208.845 243.377C209.092 243.542 209.257 243.872 209.339 244.201C209.504 244.696 209.751 245.108 210.328 245.108C210.74 245.108 211.152 244.861 211.152 244.366C211.152 244.119 211.07 243.872 210.987 243.625C210.493 242.553 209.669 241.811 209.092 240.822C208.68 240.245 208.433 239.586 208.268 238.844C208.268 238.597 208.103 238.02 208.268 237.855C208.35 237.773 208.433 237.773 208.515 237.855C208.597 237.855 208.68 237.938 208.762 238.02C209.257 238.597 209.751 239.174 210.493 238.927C210.575 238.927 210.658 238.844 210.74 238.762C210.74 238.762 210.74 238.679 210.74 238.597C210.74 237.855 210.328 237.526 209.998 236.949C209.339 236.042 209.257 234.476 208.927 233.322C208.597 231.921 208.35 230.438 208.103 229.037C208.02 228.789 207.938 228.46 207.773 228.295C207.114 227.8 207.114 229.614 207.114 229.943C207.031 230.767 206.867 231.674 206.702 232.498C206.372 234.147 205.795 235.795 204.971 237.278C204.559 237.938 204.312 239.009 204.971 239.256C205.878 239.586 206.537 237.196 207.279 237.938C207.196 238.762 206.784 239.421 206.372 240.163C206.042 240.822 205.713 241.399 205.383 242.059C205.053 242.636 204.724 243.212 204.724 243.872C204.724 244.037 204.806 244.284 204.971 244.449C205.053 244.531 205.218 244.531 205.301 244.531C205.713 244.531 206.207 244.366 206.537 243.954C206.702 243.789 206.784 243.625 206.949 243.46C207.114 243.295 207.279 243.212 207.526 243.295C208.35 243.625 207.279 245.767 207.031 246.179C206.784 246.509 206.537 246.839 206.29 247.168C205.96 247.581 205.548 247.993 205.301 248.487C205.053 248.982 204.806 249.559 204.806 250.053C204.806 250.383 204.971 250.877 205.218 250.96C205.466 251.042 205.713 250.96 205.878 250.877C206.042 250.795 206.29 250.548 206.372 250.3C206.537 250.053 206.784 249.723 206.867 249.394C206.949 249.229 207.279 248.734 207.444 249.064C207.526 249.229 207.361 249.806 207.279 249.971C207.114 250.63 206.867 251.207 206.455 251.701C206.125 252.113 205.795 252.526 205.466 253.02L197.389 257.223C197.306 257.058 197.141 256.894 197.059 256.646C196.812 255.987 196.647 255.328 196.729 254.668V254.586C196.729 254.504 196.894 254.586 196.977 254.586C197.224 254.751 197.389 255.08 197.471 255.41C197.636 255.905 197.883 256.317 198.46 256.317C198.872 256.317 199.284 256.069 199.284 255.575C199.284 255.328 199.202 255.08 199.119 254.833C198.625 253.762 197.801 253.02 197.224 252.031C196.812 251.454 196.564 250.795 196.4 250.053C196.4 249.806 196.235 249.311 196.4 249.064C196.482 248.982 196.564 248.982 196.647 249.064C196.729 249.064 196.812 249.146 196.894 249.229C197.389 249.806 197.883 250.383 198.625 250.135C198.707 250.135 198.79 250.053 198.872 249.971C198.872 249.971 198.872 249.888 198.872 249.806C198.872 249.064 198.46 248.734 198.13 248.157C197.471 247.251 197.389 245.685 197.059 244.531C196.729 243.13 196.482 241.647 196.235 240.245C196.152 239.998 196.07 239.669 195.905 239.504C195.246 239.009 195.246 240.822 195.246 241.152C195.163 241.976 194.999 242.883 194.834 243.707C194.504 245.355 193.927 247.004 193.103 248.487C192.691 249.146 192.444 250.218 193.103 250.465C194.01 250.795 194.669 248.405 195.411 249.146C195.328 249.971 194.916 250.63 194.504 251.372C194.174 252.031 193.845 252.608 193.515 253.267C193.185 253.844 192.856 254.421 192.856 255.08C192.856 255.245 192.938 255.493 193.103 255.657C193.185 255.74 193.35 255.74 193.433 255.74C193.845 255.74 194.339 255.575 194.669 255.163C194.834 254.998 194.916 254.833 195.081 254.668C195.246 254.504 195.411 254.421 195.658 254.504C196.482 254.833 195.411 256.976 195.163 257.388C194.916 257.718 194.669 258.047 194.422 258.377C194.092 258.789 193.762 259.201 193.515 259.613L191.784 260.52C191.784 260.438 191.867 260.355 191.867 260.273C191.867 260.025 191.784 259.778 191.702 259.531C191.207 258.46 190.383 257.718 189.806 256.729C189.394 256.152 189.147 255.493 188.982 254.751C188.982 254.504 188.817 253.927 188.982 253.762C189.065 253.679 189.147 253.679 189.229 253.762C189.312 253.762 189.394 253.844 189.477 253.927C189.971 254.504 190.466 255.08 191.207 254.833C191.29 254.833 191.372 254.751 191.455 254.668C191.455 254.668 191.455 254.586 191.455 254.504C191.455 253.762 191.043 253.432 190.713 252.855C190.054 251.949 189.971 250.383 189.641 249.229C189.312 247.828 189.065 246.344 188.817 244.943C188.735 244.696 188.652 244.366 188.488 244.201C187.828 243.707 187.828 245.52 187.828 245.85C187.746 246.674 187.581 247.581 187.416 248.405C187.087 250.053 186.51 251.701 185.685 253.185C185.273 253.844 185.026 254.916 185.685 255.163C186.592 255.493 187.251 253.102 187.993 253.844C187.911 254.668 187.499 255.328 187.087 256.069C186.757 256.729 186.427 257.306 186.098 257.965C185.768 258.542 185.438 259.119 185.438 259.778C185.438 259.943 185.521 260.19 185.685 260.355C185.768 260.438 185.933 260.438 186.015 260.438C186.427 260.438 186.922 260.273 187.251 259.861C187.416 259.696 187.499 259.531 187.663 259.366C187.828 259.201 187.993 259.119 188.24 259.201C189.065 259.531 187.993 261.674 187.746 262.086C187.499 262.416 187.251 262.745 187.004 263.075C186.922 263.157 186.757 263.322 186.674 263.487L179.834 267.031L266.124 254.833L301.234 200.438Z" fill="#B61B2B"/>
</g>
<defs>
<clipPath id="clip0">
<rect width="801.67" height="295.3" fill="white"/>
</clipPath>
</defs>
</svg>
